<?xml version="1.0" encoding="UTF-8" standalone="no"?><!DOCTYPE svg PUBLIC "-//W3C//DTD SVG 1.1//EN" "http://www.w3.org/Graphics/SVG/1.1/DTD/svg11.dtd"><svg width="100%" height="100%" viewBox="0 0 86 80" version="1.1" xmlns="http://www.w3.org/2000/svg" xmlns:xlink="http://www.w3.org/1999/xlink" xml:space="preserve" xmlns:serif="http://www.serif.com/" style="fill-rule:evenodd;clip-rule:evenodd;stroke-linejoin:round;stroke-miterlimit:1.41421;"><g><path d="M66.159,44.626l5.421,0l0,11.702l-5.421,0l0,-11.702Zm-1.252,14.201l7.925,0c0.692,0 1.252,-0.56 1.252,-1.25l0,-14.201c0,-0.69 -0.56,-1.249 -1.252,-1.249l-7.925,0c-0.692,0 -1.252,0.559 -1.252,1.249l0,14.201c0,0.69 0.56,1.25 1.252,1.25Z" style="fill:#ffffff;fill-rule:nonzero;"/><path d="M74.067,59.778l-10.395,0c-0.692,0 -1.252,0.56 -1.252,1.25c0,0.691 0.56,1.249 1.252,1.249l10.395,0c0.692,0 1.252,-0.558 1.252,-1.249c0,-0.69 -0.56,-1.25 -1.252,-1.25Z" style="fill:#ffffff;fill-rule:nonzero;"/><path d="M39.809,44.626l5.421,0l0,11.702l-5.421,0l0,-11.702Zm-1.252,14.201l7.925,0c0.692,0 1.253,-0.56 1.253,-1.25l0,-14.201c0,-0.69 -0.561,-1.249 -1.253,-1.249l-7.925,0c-0.692,0 -1.252,0.559 -1.252,1.249l0,14.201c0,0.69 0.56,1.25 1.252,1.25Z" style="fill:#ffffff;fill-rule:nonzero;"/><path d="M47.717,59.778l-10.395,0c-0.691,0 -1.252,0.56 -1.252,1.25c0,0.691 0.561,1.249 1.252,1.249l10.395,0c0.692,0 1.252,-0.558 1.252,-1.249c0,-0.69 -0.56,-1.25 -1.252,-1.25Z" style="fill:#ffffff;fill-rule:nonzero;"/><path d="M13.46,44.626l5.429,0l0,11.702l-5.429,0l0,-11.702Zm-1.253,14.201l7.925,0c0.692,0 1.253,-0.56 1.253,-1.25l0,-14.201c0,-0.69 -0.561,-1.249 -1.253,-1.249l-7.925,0c-0.692,0 -1.252,0.559 -1.252,1.249l0,14.201c0,0.69 0.56,1.25 1.252,1.25Z" style="fill:#ffffff;fill-rule:nonzero;"/><path d="M21.367,59.778l-10.395,0c-0.691,0 -1.252,0.56 -1.252,1.25c0,0.691 0.561,1.249 1.252,1.249l10.395,0c0.692,0 1.252,-0.558 1.252,-1.249c0,-0.69 -0.56,-1.25 -1.252,-1.25Z" style="fill:#ffffff;fill-rule:nonzero;"/><path d="M2.496,17.401l0.35,-0.36l0,0.404c0,0.69 0.552,1.249 1.243,1.249l6.7,0c0.691,0 1.252,-0.559 1.252,-1.249l0,-9.987l3.17,-3.301l54.617,0l12.716,13.244l0,18.628l-1.594,0l-76.861,0l-1.593,0l0,-18.628Zm2.846,-14.902l4.203,0l0,13.695l-4.203,0l0,-13.695Zm0,63.377l0,-27.348l74.356,0l0,27.348l-74.356,0Zm76.081,11.472l-77.806,0l0,-8.972l77.806,0l0,8.972Zm-80.18,-38.82l1.603,0l0,27.348l-0.482,0c-0.691,0 -1.252,0.56 -1.252,1.25l0,11.473c0,0.69 0.561,1.248 1.252,1.248l80.311,0c0.692,0 1.252,-0.558 1.252,-1.248l0,-11.473c0,-0.69 -0.56,-1.25 -1.252,-1.25l-0.482,0l0,-27.348l1.603,0c0.683,0 1.243,-0.559 1.243,-1.249l0,-20.381c0,-0.322 -0.122,-0.632 -0.341,-0.865l-13.433,-13.991c-0.237,-0.245 -0.561,-0.384 -0.902,-0.384l-55.686,0c-0.342,0 -0.666,0.139 -0.902,0.384l-1.734,1.808l0,-2.6c0,-0.691 -0.561,-1.25 -1.252,-1.25l-6.7,0c-0.691,0 -1.243,0.559 -1.243,1.25l0,12.199c-0.018,0.014 -0.035,0.018 -0.053,0.033l-2.451,2.55c-0.219,0.234 -0.342,0.544 -0.342,0.866l0,20.381c0,0.69 0.56,1.249 1.243,1.249Z" style="fill:#ffffff;fill-rule:nonzero;"/><path d="M44.985,27.68l-4.93,0l0,-5.995l4.93,0l0,5.995Zm1.252,-8.494l-7.435,0c-0.692,0 -1.252,0.559 -1.252,1.249l0,8.495c0,0.69 0.56,1.249 1.252,1.249l7.435,0c0.692,0 1.252,-0.559 1.252,-1.249l0,-8.495c0,-0.69 -0.56,-1.249 -1.252,-1.249Z" style="fill:#ffffff;fill-rule:nonzero;"/><path d="M36.727,17.887l11.585,0l0,13.591l-11.585,0l0,-13.591Zm5.797,-8.375l4.501,5.876l-9.011,0l4.51,-5.876Zm-7.041,24.465l14.073,0c0.692,0 1.252,-0.559 1.252,-1.249l0,-16.091c0,-0.127 -0.026,-0.246 -0.061,-0.362c0,-0.022 -0.009,-0.044 -0.018,-0.065c-0.043,-0.112 -0.096,-0.217 -0.166,-0.311c-0.009,-0.007 -0.009,-0.016 -0.009,-0.023l-7.04,-9.179c-0.473,-0.616 -1.515,-0.616 -1.988,0.001l-7.041,9.178c0,0.007 0,0.016 -0.009,0.022c-0.07,0.095 -0.122,0.199 -0.166,0.312c-0.009,0.021 -0.009,0.043 -0.018,0.065c-0.035,0.116 -0.061,0.235 -0.061,0.362l0,16.091c0,0.69 0.561,1.249 1.252,1.249Z" style="fill:#ffffff;fill-rule:nonzero;"/></g></svg>