<?xml version="1.0" encoding="UTF-8" standalone="no"?><!DOCTYPE svg PUBLIC "-//W3C//DTD SVG 1.1//EN" "http://www.w3.org/Graphics/SVG/1.1/DTD/svg11.dtd"><svg width="100%" height="100%" viewBox="0 0 86 59" version="1.1" xmlns="http://www.w3.org/2000/svg" xmlns:xlink="http://www.w3.org/1999/xlink" xml:space="preserve" xmlns:serif="http://www.serif.com/" style="fill-rule:evenodd;clip-rule:evenodd;stroke-linejoin:round;stroke-miterlimit:1.41421;"><g><path d="M5.752,55.101l73.402,0l-37.411,-50.107l-35.991,50.107Zm79.287,2.951l-85.039,0l41.697,-58.052l43.342,58.052Z" style="fill:#ffffff; fill-rule:nonzero;"/><path d="M28.582,23.316l4.437,4.719l8.216,-10.122l6.979,7.945l4.838,-5.717l-11.309,-15.147l-13.161,18.322Zm4.6,9.2l-8.414,-8.948l16.929,-23.568l15.124,20.257l-8.565,10.12l-6.932,-7.891l-8.142,10.03Z" style="fill:#ffffff; fill-rule:nonzero;"/><path d="M8.506,12.097l16.219,0c-0.572,-0.93 -1.598,-1.544 -2.764,-1.544c-0.313,0 -0.622,0.044 -0.917,0.132c-1.778,0.525 -3.764,0.143 -5.242,-1.007c-0.816,-0.634 -1.795,-0.97 -2.831,-0.97c-1.268,0 -2.453,0.503 -3.334,1.417c-0.545,0.564 -0.928,1.238 -1.131,1.972Zm19.718,2.95l-21.876,0l-0.975,-0.842l0.019,-0.588c-0.074,-2.079 0.679,-4.047 2.121,-5.542c1.443,-1.494 3.382,-2.318 5.458,-2.318c1.699,0 3.303,0.551 4.642,1.592c0.747,0.58 1.706,0.768 2.592,0.506c0.568,-0.168 1.159,-0.254 1.756,-0.254c3.31,0 6.028,2.592 6.188,5.9l0.075,1.546Z" style="fill:#ffffff; fill-rule:nonzero;"/></g></svg>