<?xml version="1.0" encoding="UTF-8" standalone="no"?><!DOCTYPE svg PUBLIC "-//W3C//DTD SVG 1.1//EN" "http://www.w3.org/Graphics/SVG/1.1/DTD/svg11.dtd"><svg width="100%" height="100%" viewBox="0 0 76 86" version="1.1" xmlns="http://www.w3.org/2000/svg" xmlns:xlink="http://www.w3.org/1999/xlink" xml:space="preserve" xmlns:serif="http://www.serif.com/" style="fill-rule:evenodd;clip-rule:evenodd;stroke-linejoin:round;stroke-miterlimit:1.41421;"><g><path d="M30.711,83.459l13.618,0l0,-15.805c0,-3.755 -3.054,-6.81 -6.809,-6.81c-3.755,0 -6.809,3.055 -6.809,6.81l0,15.805Zm14.331,1.426l-15.044,0c-0.394,0 -0.713,-0.319 -0.713,-0.713l0,-16.518c0,-4.541 3.694,-8.236 8.235,-8.236c4.54,0 8.235,3.695 8.235,8.236l0,16.518c0,0.394 -0.319,0.713 -0.713,0.713Z" style="fill:#ffffff; fill-rule:nonzero;"/><path d="M54.312,67.256l2.067,0l0,-3.125c0,-0.57 -0.463,-1.034 -1.033,-1.034c-0.57,0 -1.034,0.464 -1.034,1.034l0,3.125Zm2.781,1.425l-3.494,0c-0.394,0 -0.713,-0.319 -0.713,-0.712l0,-3.838c0,-1.356 1.103,-2.459 2.46,-2.459c1.356,0 2.459,1.103 2.459,2.459l0,3.838c0,0.393 -0.319,0.712 -0.712,0.712Z" style="fill:#ffffff; fill-rule:nonzero;"/><path d="M27.216,49.079l2.068,0l0,-3.123c0,-0.571 -0.463,-1.034 -1.034,-1.034c-0.57,0 -1.034,0.463 -1.034,1.034l0,3.123Zm2.781,1.426l-3.494,0c-0.393,0 -0.713,-0.319 -0.713,-0.713l0,-3.836c0,-1.356 1.104,-2.46 2.46,-2.46c1.356,0 2.46,1.104 2.46,2.46l0,3.836c0,0.394 -0.319,0.713 -0.713,0.713Z" style="fill:#ffffff; fill-rule:nonzero;"/><path d="M45.755,49.079l2.068,0l0,-3.123c0,-0.571 -0.464,-1.034 -1.034,-1.034c-0.57,0 -1.034,0.463 -1.034,1.034l0,3.123Zm2.781,1.426l-3.494,0c-0.394,0 -0.713,-0.319 -0.713,-0.713l0,-3.836c0,-1.356 1.104,-2.46 2.46,-2.46c1.357,0 2.46,1.104 2.46,2.46l0,3.836c0,0.394 -0.319,0.713 -0.713,0.713Z" style="fill:#ffffff; fill-rule:nonzero;"/><path d="M37.919,32.949l2.068,0l0,-3.124c0,-0.57 -0.464,-1.034 -1.035,-1.034c-0.57,0 -1.033,0.464 -1.033,1.034l0,3.124Zm2.781,1.425l-3.494,0c-0.394,0 -0.713,-0.318 -0.713,-0.712l0,-3.837c0,-1.357 1.103,-2.46 2.459,-2.46c1.357,0 2.46,1.103 2.46,2.46l0,3.837c0,0.394 -0.319,0.712 -0.712,0.712Z" style="fill:#ffffff; fill-rule:nonzero;"/><path d="M66.861,67.256l2.068,0l0,-3.125c0,-0.57 -0.464,-1.034 -1.036,-1.034c-0.571,0 -1.032,0.464 -1.032,1.034l0,3.125Zm2.78,1.425l-3.495,0c-0.394,0 -0.712,-0.319 -0.712,-0.712l0,-3.838c0,-1.356 1.103,-2.459 2.459,-2.459c1.357,0 2.46,1.103 2.46,2.459l0,3.838c0,0.393 -0.318,0.712 -0.712,0.712Z" style="fill:#ffffff; fill-rule:nonzero;"/><path d="M66.861,56.558l2.068,0l0,-3.122c0,-0.571 -0.464,-1.035 -1.036,-1.035c-0.571,0 -1.032,0.464 -1.032,1.035l0,3.122Zm2.78,1.426l-3.495,0c-0.394,0 -0.712,-0.318 -0.712,-0.712l0,-3.836c0,-1.357 1.103,-2.461 2.459,-2.461c1.357,0 2.46,1.104 2.46,2.461l0,3.836c0,0.394 -0.318,0.712 -0.712,0.712Z" style="fill:#ffffff; fill-rule:nonzero;"/><path d="M18.329,67.256l2.068,0l0,-3.125c0,-0.57 -0.464,-1.034 -1.034,-1.034c-0.57,0 -1.034,0.464 -1.034,1.034l0,3.125Zm2.781,1.425l-3.494,0c-0.394,0 -0.713,-0.319 -0.713,-0.712l0,-3.838c0,-1.356 1.104,-2.459 2.46,-2.459c1.357,0 2.46,1.103 2.46,2.459l0,3.838c0,0.393 -0.319,0.712 -0.713,0.712Z" style="fill:#ffffff; fill-rule:nonzero;"/><path d="M48.536,85.039c-0.393,0 -0.713,-0.318 -0.713,-0.712l0,-17.803c0,-5.681 -4.621,-10.302 -10.303,-10.302c-5.681,0 -10.304,4.621 -10.304,10.302l0,17.803c0,0.394 -0.319,0.712 -0.713,0.712c-0.393,0 -0.713,-0.318 -0.713,-0.712l0,-17.803c0,-6.466 5.262,-11.728 11.73,-11.728c6.468,0 11.729,5.262 11.729,11.728l0,17.803c0,0.394 -0.319,0.712 -0.713,0.712Z" style="fill:#ffffff; fill-rule:nonzero;"/><path d="M40.38,56.599c-0.393,0 -0.713,-0.319 -0.713,-0.713l0,-2.099l-3.227,0l0,1.868c0,0.394 -0.319,0.713 -0.713,0.713c-0.393,0 -0.713,-0.319 -0.713,-0.713l0,-2.581c0,-0.393 0.32,-0.712 0.713,-0.712l4.653,0c0.394,0 0.713,0.319 0.713,0.712l0,2.812c0,0.394 -0.319,0.713 -0.713,0.713Z" style="fill:#ffffff; fill-rule:nonzero;"/><path d="M63.034,85.039l-50.562,0c-0.395,0 -0.713,-0.318 -0.713,-0.712l0,-27.298c0,-0.394 0.318,-0.713 0.713,-0.713l4.095,0l0,-3.242c0,-0.393 0.319,-0.712 0.713,-0.712l4.652,0c0.394,0 0.713,0.319 0.713,0.712l0,3.242l3.145,0l0,-3.242c0,-0.393 0.32,-0.712 0.713,-0.712l4.653,0c0.394,0 0.713,0.319 0.713,0.712l0,3.242l0.063,0c0.394,0 0.712,0.319 0.712,0.713c0,0.394 -0.318,0.713 -0.712,0.713l-0.776,0c-0.393,0 -0.712,-0.319 -0.712,-0.713l0,-3.242l-3.228,0l0,3.242c0,0.394 -0.319,0.713 -0.713,0.713l-4.571,0c-0.393,0 -0.713,-0.319 -0.713,-0.713l0,-3.242l-3.226,0l0,3.242c0,0.394 -0.32,0.713 -0.713,0.713l-4.095,0l0,25.872l49.136,0l0,-25.872l-3.493,0c-0.394,0 -0.713,-0.319 -0.713,-0.713l0,-3.242l-3.227,0l0,3.242c0,0.394 -0.319,0.713 -0.713,0.713l-4.571,0c-0.394,0 -0.712,-0.319 -0.712,-0.713l0,-3.242l-3.228,0l0,3.242c0,0.394 -0.319,0.713 -0.713,0.713l-1.835,0c-0.394,0 -0.713,-0.319 -0.713,-0.713c0,-0.394 0.319,-0.713 0.713,-0.713l1.122,0l0,-3.242c0,-0.393 0.32,-0.712 0.713,-0.712l4.653,0c0.394,0 0.713,0.319 0.713,0.712l0,3.242l3.145,0l0,-3.242c0,-0.393 0.319,-0.712 0.713,-0.712l4.653,0c0.393,0 0.713,0.319 0.713,0.712l0,3.242l3.493,0c0.394,0 0.713,0.319 0.713,0.713l0,27.298c0,0.394 -0.319,0.712 -0.713,0.712Z" style="fill:#ffffff; fill-rule:nonzero;"/><path d="M37.52,85.039c-0.394,0 -0.713,-0.318 -0.713,-0.712l0,-24.041c0,-0.394 0.319,-0.712 0.713,-0.712c0.394,0 0.713,0.318 0.713,0.712l0,24.041c0,0.394 -0.319,0.712 -0.713,0.712Z" style="fill:#ffffff; fill-rule:nonzero;"/><path d="M63.747,83.614l8.292,0l0,-37.97l-8.292,0l0,37.97Zm9.007,1.425l-9.72,0c-0.394,0 -0.713,-0.318 -0.713,-0.712l0,-39.396c0,-0.394 0.319,-0.712 0.713,-0.712l9.72,0c0.394,0 0.712,0.318 0.712,0.712l0,39.396c0,0.394 -0.318,0.712 -0.712,0.712Z" style="fill:#ffffff; fill-rule:nonzero;"/><path d="M61.756,44.219l12.275,0l0,-6.587l-1.029,0l0,2.078c0,0.395 -0.321,0.713 -0.715,0.713l-3.165,0c-0.394,0 -0.712,-0.318 -0.712,-0.713l0,-2.078l-1.03,0l0,2.078c0,0.395 -0.321,0.713 -0.715,0.713l-3.166,0c-0.394,0 -0.713,-0.318 -0.713,-0.713l0,-2.078l-1.03,0l0,6.587Zm12.987,1.425l-13.7,0c-0.393,0 -0.713,-0.318 -0.713,-0.713l0,-8.012c0,-0.394 0.32,-0.713 0.713,-0.713l2.456,0c0.394,0 0.713,0.319 0.713,0.713l0,2.079l1.741,0l0,-2.079c0,-0.394 0.318,-0.713 0.712,-0.713l2.457,0c0.394,0 0.711,0.319 0.711,0.713l0,2.079l1.742,0l0,-2.079c0,-0.394 0.32,-0.713 0.712,-0.713l2.456,0c0.394,0 0.712,0.319 0.712,0.713l0,8.012c0,0.395 -0.318,0.713 -0.712,0.713Z" style="fill:#ffffff; fill-rule:nonzero;"/><path d="M6.529,67.256l2.069,0l0,-3.125c0,-0.57 -0.465,-1.034 -1.035,-1.034c-0.57,0 -1.034,0.464 -1.034,1.034l0,3.125Zm2.782,1.425l-3.495,0c-0.394,0 -0.712,-0.319 -0.712,-0.712l0,-3.838c0,-1.356 1.103,-2.459 2.459,-2.459c1.357,0 2.46,1.103 2.46,2.459l0,3.838c0,0.393 -0.319,0.712 -0.712,0.712Z" style="fill:#ffffff; fill-rule:nonzero;"/><path d="M6.529,56.558l2.069,0l0,-3.122c0,-0.571 -0.465,-1.035 -1.035,-1.035c-0.57,0 -1.034,0.464 -1.034,1.035l0,3.122Zm2.782,1.426l-3.495,0c-0.394,0 -0.712,-0.318 -0.712,-0.712l0,-3.836c0,-1.357 1.103,-2.461 2.459,-2.461c1.357,0 2.46,1.104 2.46,2.461l0,3.836c0,0.394 -0.319,0.712 -0.712,0.712Z" style="fill:#ffffff; fill-rule:nonzero;"/><path d="M3.416,83.614l8.294,0l0,-37.97l-8.294,0l0,37.97Zm9.007,1.425l-9.72,0c-0.393,0 -0.713,-0.318 -0.713,-0.712l0,-39.396c0,-0.394 0.32,-0.712 0.713,-0.712l9.72,0c0.394,0 0.713,0.318 0.713,0.712l0,39.396c0,0.394 -0.319,0.712 -0.713,0.712Z" style="fill:#ffffff; fill-rule:nonzero;"/><path d="M1.426,44.219l12.274,0l0,-6.587l-1.029,0l0,2.078c0,0.395 -0.32,0.713 -0.713,0.713l-3.167,0c-0.394,0 -0.713,-0.318 -0.713,-0.713l0,-2.078l-1.029,0l0,2.078c0,0.395 -0.32,0.713 -0.713,0.713l-3.168,0c-0.393,0 -0.713,-0.318 -0.713,-0.713l0,-2.078l-1.029,0l0,6.587Zm12.987,1.425l-13.7,0c-0.393,0 -0.713,-0.318 -0.713,-0.713l0,-8.012c0,-0.394 0.32,-0.713 0.713,-0.713l2.455,0c0.394,0 0.713,0.319 0.713,0.713l0,2.079l1.742,0l0,-2.079c0,-0.394 0.319,-0.713 0.713,-0.713l2.455,0c0.393,0 0.713,0.319 0.713,0.713l0,2.079l1.741,0l0,-2.079c0,-0.394 0.319,-0.713 0.713,-0.713l2.455,0c0.394,0 0.713,0.319 0.713,0.713l0,8.012c0,0.395 -0.319,0.713 -0.713,0.713Z" style="fill:#ffffff; fill-rule:nonzero;"/><path d="M55.171,53.788c-0.393,0 -0.713,-0.319 -0.713,-0.713l0,-11.437l-32.81,0l0,11.437c0,0.394 -0.318,0.713 -0.712,0.713c-0.394,0 -0.713,-0.319 -0.713,-0.713l0,-12.15c0,-0.394 0.319,-0.713 0.713,-0.713l34.235,0c0.394,0 0.713,0.319 0.713,0.713l0,12.15c0,0.394 -0.319,0.713 -0.713,0.713Z" style="fill:#ffffff; fill-rule:nonzero;"/><path d="M19.902,40.212l36.304,0l0,-3.46l-36.304,0l0,3.46Zm37.016,1.426l-37.729,0c-0.394,0 -0.713,-0.319 -0.713,-0.713l0,-4.886c0,-0.394 0.319,-0.713 0.713,-0.713l37.729,0c0.394,0 0.713,0.319 0.713,0.713l0,4.886c0,0.394 -0.319,0.713 -0.713,0.713Z" style="fill:#ffffff; fill-rule:nonzero;"/><path d="M24.49,35.326l27.127,0l-13.563,-32.75l-13.564,32.75Zm28.194,1.426l-29.261,0c-0.238,0 -0.461,-0.119 -0.593,-0.317c-0.132,-0.198 -0.156,-0.449 -0.065,-0.669l14.63,-35.326c0.111,-0.266 0.371,-0.44 0.659,-0.44c0.288,0 0.548,0.174 0.658,0.44l14.63,35.326c0.092,0.22 0.067,0.471 -0.065,0.669c-0.132,0.198 -0.355,0.317 -0.593,0.317Z" style="fill:#ffffff; fill-rule:nonzero;"/><path d="M31.352,35.326l13.403,0l-6.701,-31.217l-6.702,31.217Zm14.285,1.426l-15.166,0c-0.216,0 -0.419,-0.098 -0.554,-0.265c-0.136,-0.167 -0.189,-0.387 -0.143,-0.598l7.583,-35.326c0.07,-0.328 0.361,-0.563 0.697,-0.563c0.336,0 0.626,0.235 0.696,0.563l7.583,35.326c0.046,0.211 -0.006,0.431 -0.142,0.598c-0.135,0.167 -0.339,0.265 -0.554,0.265Z" style="fill:#ffffff; fill-rule:nonzero;"/><path d="M14.798,57.742c-0.394,0 -0.712,-0.319 -0.712,-0.713l0,-10.029c0,-0.393 0.318,-0.712 0.712,-0.712l6.138,0c0.394,0 0.712,0.319 0.712,0.712c0,0.395 -0.318,0.713 -0.712,0.713l-5.425,0l0,9.316c0,0.394 -0.319,0.713 -0.713,0.713Z" style="fill:#ffffff; fill-rule:nonzero;"/><path d="M61.309,57.742c-0.394,0 -0.713,-0.319 -0.713,-0.713l0,-9.316l-5.425,0c-0.393,0 -0.713,-0.318 -0.713,-0.713c0,-0.393 0.32,-0.712 0.713,-0.712l6.138,0c0.394,0 0.712,0.319 0.712,0.712l0,10.029c0,0.394 -0.318,0.713 -0.712,0.713Z" style="fill:#ffffff; fill-rule:nonzero;"/></g></svg>