<?xml version="1.0" encoding="UTF-8" standalone="no"?><!DOCTYPE svg PUBLIC "-//W3C//DTD SVG 1.1//EN" "http://www.w3.org/Graphics/SVG/1.1/DTD/svg11.dtd"><svg width="100%" height="100%" viewBox="0 0 86 64" version="1.1" xmlns="http://www.w3.org/2000/svg" xmlns:xlink="http://www.w3.org/1999/xlink" xml:space="preserve" xmlns:serif="http://www.serif.com/" style="fill-rule:evenodd;clip-rule:evenodd;stroke-linejoin:round;stroke-miterlimit:1.41421;"><g><rect x="16.162" y="47.843" width="3.847" height="7.2" style="fill:#fff;fill-rule:nonzero;"/><rect x="16.162" y="34.517" width="3.847" height="7.2" style="fill:#fff;fill-rule:nonzero;"/><rect x="16.162" y="21.192" width="3.847" height="7.2" style="fill:#fff;fill-rule:nonzero;"/><path d="M9.479,6.847l0,-5.072l1.806,0l0,5.072l5.898,0l0,-5.072l1.805,0l0,5.072l5.899,0l0,-5.072l1.806,0l0,5.072l5.898,0l0,-5.072l1.805,0l0,3.955l-4.121,7.481l-24.378,0l-4.122,-7.481l0,-3.955l1.806,0l0,5.072l5.898,0Zm43.872,12.09l0,20.268l-21.664,0l0,-20.268l21.664,0Zm-10.831,-9.591l9.286,7.815l-18.573,0l9.287,-7.815Zm10.831,51.902l-5.058,0l0,-12.279c0,-2.584 -2.59,-4.685 -5.773,-4.685c-3.185,0 -5.774,2.101 -5.774,4.685l0,12.279l-5.059,0l0,-20.268l21.664,0l0,20.268Zm-23.439,-43.613l0,43.613l-23.653,0l0,-46.261l23.653,0l0,2.648Zm20.73,-11.905l0,-3.955l1.806,0l0,5.072l5.899,0l0,-5.072l1.805,0l0,5.072l5.898,0l0,-5.072l1.806,0l0,5.072l5.899,0l0,-5.072l1.805,0l0,5.072l5.898,0l0,-5.072l1.806,0l0,3.955l-4.121,7.481l-24.379,0l-4.122,-7.481Zm28.138,55.518l-23.653,0l0,-43.613l0,-2.648l23.653,0l0,46.261Zm-78.78,-61.248l0,6.187l4.484,8.141l0,48.695l34.037,0l0,-14.054c0,-1.604 1.794,-2.909 3.999,-2.909c2.204,0 3.998,1.305 3.998,2.909l0,14.054l34.037,0l0,-48.695l4.484,-8.141l0,-6.187l-5.356,0l0,5.071l-2.347,0l0,-5.071l-5.357,0l0,5.071l-2.347,0l0,-5.071l-5.357,0l0,5.071l-2.347,0l0,-5.071l-5.357,0l0,5.071l-2.348,0l0,-5.071l-5.356,0l0,6.187l4.484,8.141l0,1.814l-10.831,-9.116l-10.833,9.116l0,-1.814l4.485,-8.141l0,-6.187l-5.357,0l0,5.071l-2.347,0l0,-5.071l-5.356,0l0,5.071l-2.348,0l0,-5.071l-5.357,0l0,5.071l-2.347,0l0,-5.071l-5.356,0l0,5.071l-2.348,0l0,-5.071l-5.356,0Z" style="fill:#fff;fill-rule:nonzero;"/><rect x="65.03" y="47.843" width="3.846" height="7.2" style="fill:#fff;fill-rule:nonzero;"/><rect x="65.03" y="34.517" width="3.846" height="7.2" style="fill:#fff;fill-rule:nonzero;"/><rect x="65.03" y="21.192" width="3.846" height="7.2" style="fill:#fff;fill-rule:nonzero;"/><path d="M42.52,24.792c-2.324,0 -4.208,1.883 -4.208,4.207l0,4.208l8.415,0l0,-4.208c0,-2.324 -1.884,-4.207 -4.207,-4.207Z" style="fill:#fff;fill-rule:nonzero;"/></g></svg>