<?xml version="1.0" encoding="UTF-8" standalone="no"?><!DOCTYPE svg PUBLIC "-//W3C//DTD SVG 1.1//EN" "http://www.w3.org/Graphics/SVG/1.1/DTD/svg11.dtd"><svg width="100%" height="100%" viewBox="0 0 36 86" version="1.1" xmlns="http://www.w3.org/2000/svg" xmlns:xlink="http://www.w3.org/1999/xlink" xml:space="preserve" xmlns:serif="http://www.serif.com/" style="fill-rule:evenodd;clip-rule:evenodd;stroke-linejoin:round;stroke-miterlimit:1.41421;"><g><path d="M20.387,19.253c0,1.396 -1.132,2.528 -2.528,2.528c-1.396,0 -2.528,-1.132 -2.528,-2.528c0,-1.396 1.132,-2.528 2.528,-2.528c1.396,0 2.528,1.132 2.528,2.528Z" style="fill:#ffffff; fill-rule:nonzero;"/><path d="M17.369,0.006c-6.309,0.142 -11.928,2.944 -15.823,7.306l1.26,0.91c3.615,-3.986 8.793,-6.54 14.598,-6.671c6.132,-0.138 11.688,2.456 15.511,6.666l1.327,-0.834c-4.118,-4.651 -10.176,-7.528 -16.873,-7.377Z" style="fill:#ffffff; fill-rule:nonzero;"/><path d="M17.462,4.127c-4.966,0.112 -9.407,2.254 -12.555,5.612l1.027,0.742c2.918,-3.055 6.999,-4.996 11.556,-5.099c4.732,-0.107 9.04,1.79 12.12,4.913l1.086,-0.683c-3.325,-3.478 -8.044,-5.602 -13.234,-5.485Z" style="fill:#ffffff; fill-rule:nonzero;"/><path d="M17.561,8.55c-3.524,0.079 -6.697,1.52 -9.029,3.807l0.78,0.563c2.156,-2.06 5.054,-3.356 8.271,-3.428c3.223,-0.073 6.184,1.094 8.433,3.062l0.829,-0.521c-2.444,-2.231 -5.714,-3.564 -9.284,-3.483Z" style="fill:#ffffff; fill-rule:nonzero;"/><path d="M17.673,13.506c-1.904,0.043 -3.645,0.72 -5.027,1.822l0.501,0.362c1.263,-0.964 2.83,-1.554 4.54,-1.592c1.512,-0.034 2.931,0.368 4.143,1.087l0.553,-0.347c-1.357,-0.873 -2.975,-1.371 -4.71,-1.332Z" style="fill:#ffffff; fill-rule:nonzero;"/><path d="M35.623,85.039l-16.318,-63.946l0.021,-0.082l-0.042,0l-2.945,0l-0.042,0l0.001,0.161l-16.298,63.867l2.987,0l13.388,-52.462l0.322,47.453l2.987,0l-0.318,-47.453l13.269,52.462l2.988,0Z" style="fill:#ffffff; fill-rule:nonzero;"/><rect x="10.98" y="48.287" width="13.663" height="1.012" style="fill:#ffffff; fill-rule:nonzero;"/><rect x="7.185" y="59.335" width="21.254" height="1.012" style="fill:#ffffff; fill-rule:nonzero;"/><path d="M18.054,53.644l-9.292,5.691l0,1.012l9.292,-5.691l9.293,5.691l0,-1.012l-9.293,-5.691Z" style="fill:#ffffff; fill-rule:nonzero;"/><path d="M18.054,64.946l-12.09,5.691l0,1.012l12.09,-5.691l11.7,5.691l0,-1.012l-11.7,-5.691Z" style="fill:#ffffff; fill-rule:nonzero;"/><path d="M18.054,42.595l-8.467,5.922l0,1.012l8.467,-5.922l6.853,5.922l0,-1.012l-6.853,-5.922Z" style="fill:#ffffff; fill-rule:nonzero;"/><rect x="5.076" y="70.637" width="25.471" height="1.012" style="fill:#ffffff; fill-rule:nonzero;"/></g></svg>