<?xml version="1.0" encoding="UTF-8" standalone="no"?><!DOCTYPE svg PUBLIC "-//W3C//DTD SVG 1.1//EN" "http://www.w3.org/Graphics/SVG/1.1/DTD/svg11.dtd"><svg width="100%" height="100%" viewBox="0 0 75 86" version="1.1" xmlns="http://www.w3.org/2000/svg" xmlns:xlink="http://www.w3.org/1999/xlink" xml:space="preserve" xmlns:serif="http://www.serif.com/" style="fill-rule:evenodd;clip-rule:evenodd;stroke-linejoin:round;stroke-miterlimit:1.41421;"><g><path d="M49.252,42.846l9.101,-12.658l1.355,0.648l-8.288,11.528c-0.053,-0.003 -0.109,-0.01 -0.159,-0.01c-0.765,0 -1.44,0.173 -2.009,0.492" style="fill:#ffffff; fill-rule:nonzero;"/><path d="M40.717,50.222c0.003,-0.007 0.004,-0.014 0.007,-0.02c1.689,-1.01 2.871,-2.689 3.251,-4.627l11.75,-16.403c0.045,0.002 0.09,0.006 0.136,0.006c0.253,0 0.507,-0.027 0.759,-0.079c0.184,0.194 0.39,0.363 0.61,0.51l-14.84,20.717c-0.297,-0.038 -0.795,-0.076 -1.673,-0.104" style="fill:#ffffff; fill-rule:nonzero;"/><path d="M47.331,46.057c-0.133,1.133 -0.37,2.116 -0.618,2.853l-0.994,1.381c-0.22,0.021 -0.545,0.039 -1.025,0.039c-0.164,0 -0.331,-0.003 -0.499,-0.006c-0.011,-0.001 -0.021,-0.001 -0.032,-0.001c-0.107,0 -0.212,0.016 -0.314,0.038l3.617,-5.03c-0.058,0.231 -0.105,0.472 -0.135,0.726" style="fill:#ffffff; fill-rule:nonzero;"/><path d="M44.01,43.048c-0.134,-0.789 -0.401,-1.533 -0.777,-2.209l4.129,-14.317l1.221,0.324c0.015,0.004 0.03,0.008 0.046,0.012c0.055,0.012 0.111,0.018 0.166,0.028l-4.513,15.648c-0.055,0.193 -0.151,0.365 -0.272,0.514" style="fill:#ffffff; fill-rule:nonzero;"/><path d="M41.105,38.491l3.647,-12.701c0.179,0.076 0.364,0.14 0.555,0.186l0.864,0.229l-3.84,13.37c-0.364,-0.407 -0.776,-0.771 -1.226,-1.084" style="fill:#ffffff; fill-rule:nonzero;"/><path d="M33.551,50.202c0.001,0.004 0.002,0.008 0.003,0.011c-0.868,0.026 -1.368,0.064 -1.675,0.107l-14.836,-20.711c0.22,-0.147 0.426,-0.316 0.61,-0.51c0.252,0.053 0.506,0.079 0.759,0.079c0.046,0 0.091,-0.004 0.136,-0.006l11.751,16.403c0.38,1.939 1.562,3.618 3.252,4.627" style="fill:#ffffff; fill-rule:nonzero;"/><path d="M30.105,50.324c-0.01,0 -0.021,0 -0.031,0c-0.167,0.003 -0.332,0.006 -0.494,0.006c-0.48,0 -0.806,-0.018 -1.026,-0.039l-0.993,-1.381c-0.249,-0.737 -0.485,-1.72 -0.618,-2.853c-0.03,-0.254 -0.077,-0.495 -0.135,-0.726l3.618,5.031c-0.105,-0.023 -0.211,-0.038 -0.321,-0.038" style="fill:#ffffff; fill-rule:nonzero;"/><path d="M15.92,30.188l9.101,12.658c-0.569,-0.319 -1.243,-0.492 -2.008,-0.492c-0.051,0 -0.106,0.007 -0.159,0.01l-8.289,-11.528l1.355,-0.648Z" style="fill:#ffffff; fill-rule:nonzero;"/><path d="M31.942,39.575l-3.839,-13.37l0.863,-0.229c0.192,-0.046 0.377,-0.11 0.556,-0.186l3.647,12.702c-0.45,0.312 -0.862,0.676 -1.227,1.083" style="fill:#ffffff; fill-rule:nonzero;"/><path d="M30.263,43.048c-0.12,-0.149 -0.216,-0.321 -0.272,-0.514l-4.513,-15.648c0.055,-0.01 0.112,-0.015 0.167,-0.028c0.015,-0.004 0.031,-0.008 0.046,-0.012l1.22,-0.324l4.13,14.317c-0.377,0.676 -0.644,1.42 -0.778,2.209" style="fill:#ffffff; fill-rule:nonzero;"/><path d="M2.763,9.871l3.992,-1.675c0.283,-0.136 0.56,-0.199 0.829,-0.199c0.559,0 1.083,0.275 1.539,0.762c0.084,-1.027 0.612,-1.9 1.469,-2.228l5.092,-1.39c0.236,-0.09 0.465,-0.133 0.686,-0.133c0.562,0 1.069,0.278 1.498,0.761c0.118,-0.912 0.551,-1.617 1.387,-1.81l5.737,-1.364c0.151,-0.035 0.297,-0.052 0.438,-0.052c0.802,0 1.433,0.548 1.857,1.415c0.004,-1.145 0.279,-2.008 1.297,-2.114l7.281,-0.355c0.069,-0.007 0.135,-0.011 0.196,-0.011c0.812,0 0.987,0.61 1.076,1.537c0.088,-0.927 0.264,-1.536 1.075,-1.537c0.062,0 0.127,0.004 0.196,0.011l7.282,0.355c1.017,0.106 1.293,0.969 1.296,2.114c0.425,-0.867 1.055,-1.415 1.857,-1.415c0.141,0 0.287,0.017 0.438,0.052l5.738,1.364c0.835,0.193 1.269,0.898 1.387,1.81c0.428,-0.483 0.936,-0.761 1.497,-0.761c0.221,0 0.45,0.043 0.687,0.133l5.092,1.39c0.857,0.328 1.385,1.201 1.468,2.228c0.457,-0.487 0.98,-0.762 1.539,-0.762c0.269,0 0.547,0.063 0.829,0.199l3.992,1.675c1.259,0.602 1.666,2.396 0.905,3.986l-6.954,14.539c-0.589,1.233 -1.715,1.997 -2.778,1.997c-0.308,0 -0.61,-0.064 -0.892,-0.2l-3.504,-1.675c-0.51,-0.244 -0.877,-0.686 -1.086,-1.228c-0.423,0.264 -0.884,0.41 -1.34,0.41c-0.247,0 -0.492,-0.043 -0.728,-0.134l-3.627,-1.389c-0.465,-0.178 -0.832,-0.519 -1.085,-0.955c-0.321,0.159 -0.663,0.247 -1.007,0.247c-0.151,0 -0.302,-0.017 -0.452,-0.051l-3.295,-0.876c-0.738,-0.171 -1.304,-0.741 -1.607,-1.499c-0.474,0.517 -1.135,0.78 -1.845,0.78c-0.101,0 -0.202,-0.005 -0.303,-0.016l-3.375,-0.42c-0.545,-0.056 -1.026,-0.256 -1.4,-0.582c-0.375,0.326 -0.856,0.526 -1.4,0.582l-3.375,0.42c-0.102,0.011 -0.203,0.016 -0.303,0.016c-0.71,0 -1.371,-0.263 -1.846,-0.78c-0.302,0.758 -0.869,1.328 -1.607,1.499l-3.295,0.876c-0.15,0.034 -0.301,0.051 -0.451,0.051c-0.345,0 -0.686,-0.088 -1.007,-0.247c-0.254,0.436 -0.621,0.777 -1.086,0.955l-3.627,1.389c-0.236,0.091 -0.481,0.134 -0.728,0.134c-0.455,0 -0.917,-0.146 -1.339,-0.41c-0.21,0.542 -0.577,0.984 -1.087,1.228l-3.503,1.675c-0.282,0.136 -0.585,0.2 -0.893,0.2c-1.062,0 -2.188,-0.764 -2.778,-1.997l-6.953,-14.539c-0.761,-1.59 -0.354,-3.384 0.904,-3.986m-2.238,4.624l6.953,14.538c0.825,1.724 2.439,2.838 4.112,2.838c0.539,0 1.054,-0.116 1.531,-0.344l1.444,-0.691l1.355,-0.648l0.704,-0.337c0.146,-0.069 0.285,-0.152 0.419,-0.242c0.221,-0.147 0.426,-0.316 0.61,-0.51c0.252,0.052 0.506,0.079 0.759,0.079c0.046,0 0.091,-0.004 0.136,-0.006c0.386,-0.015 0.763,-0.088 1.121,-0.225l3.627,-1.39c0.392,-0.15 0.749,-0.367 1.064,-0.645c0.165,0.023 0.332,0.035 0.5,0.035c0.207,0 0.414,-0.024 0.618,-0.061c0.055,-0.01 0.112,-0.016 0.167,-0.028c0.015,-0.004 0.031,-0.008 0.046,-0.012l1.22,-0.324l1.192,-0.317l0.863,-0.229c0.192,-0.046 0.377,-0.11 0.556,-0.186c0.408,-0.174 0.782,-0.423 1.106,-0.739c0.446,0.164 0.928,0.25 1.431,0.25c0.15,0 0.303,-0.008 0.454,-0.023c0.011,-0.001 0.021,-0.003 0.031,-0.004l3.362,-0.419c0.435,-0.046 0.849,-0.155 1.231,-0.322c0.381,0.167 0.795,0.276 1.231,0.322l3.361,0.419c0.011,0.001 0.021,0.003 0.031,0.004c0.151,0.015 0.304,0.023 0.455,0.023c0.502,0 0.985,-0.086 1.431,-0.25c0.324,0.316 0.697,0.565 1.106,0.739c0.179,0.076 0.364,0.14 0.555,0.186l0.864,0.229l1.191,0.317l1.22,0.324c0.016,0.004 0.031,0.008 0.047,0.012c0.055,0.012 0.111,0.018 0.167,0.028c0.204,0.037 0.41,0.061 0.618,0.061c0.167,0 0.334,-0.012 0.5,-0.035c0.314,0.278 0.672,0.495 1.064,0.645l3.626,1.39c0.358,0.137 0.735,0.21 1.121,0.225c0.045,0.002 0.09,0.006 0.136,0.006c0.253,0 0.507,-0.027 0.759,-0.079c0.184,0.194 0.39,0.363 0.61,0.51c0.135,0.09 0.273,0.173 0.419,0.243l0.704,0.336l1.355,0.648l1.445,0.691c0.477,0.228 0.992,0.344 1.53,0.344c1.674,0 3.288,-1.114 4.112,-2.838l6.953,-14.538c0.511,-1.068 0.658,-2.25 0.413,-3.329c-0.269,-1.187 -1.003,-2.145 -2.013,-2.628c-0.021,-0.011 -0.043,-0.02 -0.065,-0.03l-3.963,-1.663c-0.466,-0.217 -0.947,-0.327 -1.431,-0.327c-0.247,0 -0.492,0.029 -0.73,0.084c-0.423,-0.664 -1.024,-1.174 -1.748,-1.452c-0.046,-0.017 -0.093,-0.032 -0.14,-0.045l-5.03,-1.373c-0.376,-0.135 -0.758,-0.203 -1.138,-0.203c-0.27,0 -0.535,0.034 -0.793,0.1c-0.434,-0.558 -1.028,-0.941 -1.749,-1.108l-5.746,-1.366c-0.258,-0.06 -0.518,-0.09 -0.772,-0.09c-0.408,0 -0.801,0.077 -1.169,0.226c-0.557,-0.655 -1.295,-0.862 -1.833,-0.917c-0.026,-0.003 -0.052,-0.005 -0.079,-0.006l-7.247,-0.354c-0.103,-0.009 -0.205,-0.014 -0.303,-0.014c-0.394,0 -0.756,0.077 -1.075,0.224c-0.32,-0.147 -0.682,-0.224 -1.076,-0.224l0,0c-0.098,0 -0.2,0.005 -0.303,0.014l-7.246,0.354c-0.027,0.001 -0.054,0.003 -0.08,0.006c-0.537,0.055 -1.275,0.262 -1.832,0.917c-0.368,-0.149 -0.761,-0.226 -1.17,-0.226c-0.254,0 -0.513,0.03 -0.78,0.092l-5.729,1.362c-0.725,0.168 -1.322,0.551 -1.757,1.111c-0.258,-0.067 -0.523,-0.101 -0.794,-0.101c-0.379,0 -0.762,0.068 -1.138,0.203l-5.03,1.373c-0.047,0.013 -0.094,0.028 -0.139,0.045c-0.724,0.278 -1.325,0.788 -1.748,1.452c-0.239,-0.055 -0.483,-0.084 -0.731,-0.084c-0.484,0 -0.964,0.11 -1.43,0.327l-3.963,1.663c-0.022,0.01 -0.044,0.019 -0.066,0.03c-1.996,0.955 -2.714,3.627 -1.6,5.957" style="fill:#ffffff; fill-rule:nonzero;"/><path d="M29.788,56.393c0,-0.017 0.003,-0.035 0.004,-0.053c0.438,1.394 1.335,3.867 1.097,6.404c-0.329,3.518 0.495,3.738 -1.429,10.113c-1.923,6.376 -3.344,9.234 -0.71,10.443c0.395,0.181 0.753,0.261 1.077,0.261c1.84,0 2.604,-2.572 2.931,-3.834c0.375,-1.447 2.458,-9.54 4.379,-9.807c1.921,0.267 4.003,8.36 4.378,9.807c0.327,1.262 1.091,3.834 2.931,3.834c0.325,0 0.682,-0.08 1.077,-0.261c2.634,-1.209 1.214,-4.067 -0.71,-10.443c-1.924,-6.375 -1.099,-6.595 -1.429,-10.113c-0.237,-2.528 0.653,-4.992 1.094,-6.389c0,0.013 0.002,0.026 0.002,0.039c0.008,0.464 0.232,0.897 0.606,1.17c0.148,0.108 0.313,0.182 0.485,0.229c-0.411,1.323 -0.877,3.082 -0.715,4.813c0.104,1.115 0.1,1.931 0.097,2.65c-0.008,1.621 -0.014,2.901 1.275,7.174c0.28,0.927 0.555,1.798 0.798,2.567c0.765,2.425 1.318,4.177 1.406,5.62c0.116,1.92 -0.655,3.275 -2.292,4.026c-0.572,0.263 -1.142,0.396 -1.694,0.396c-0.937,0 -2.272,-0.379 -3.313,-2.183c-0.543,-0.942 -0.859,-2.025 -1.049,-2.758l-0.009,-0.036c-1.35,-5.209 -2.394,-7.363 -2.938,-8.218c-0.544,0.855 -1.589,3.009 -2.938,8.218l-0.01,0.036c-0.19,0.733 -0.505,1.816 -1.049,2.758c-1.041,1.804 -2.376,2.183 -3.313,2.183c-0.551,0 -1.121,-0.133 -1.694,-0.396c-1.637,-0.751 -2.408,-2.106 -2.291,-4.026c0.087,-1.443 0.64,-3.195 1.406,-5.62c0.243,-0.769 0.518,-1.64 0.797,-2.567c1.29,-4.273 1.283,-5.553 1.276,-7.174c-0.004,-0.719 -0.008,-1.535 0.097,-2.65c0.162,-1.732 -0.304,-3.493 -0.716,-4.816c0.17,-0.047 0.333,-0.12 0.48,-0.227c0.374,-0.273 0.598,-0.707 0.606,-1.17" style="fill:#ffffff; fill-rule:nonzero;"/><path d="M31.879,50.32c0.307,-0.043 0.806,-0.081 1.675,-0.107c0.005,0 0.011,0 0.016,0c0.442,0.262 0.916,0.481 1.421,0.645c0.147,0.047 0.301,0.071 0.455,0.071l3.381,0c0.155,0 0.308,-0.024 0.455,-0.071c0.5,-0.162 0.969,-0.379 1.408,-0.637c0.009,0 0.018,0 0.027,0.001c0.878,0.028 1.376,0.065 1.673,0.104c0.29,0.037 0.39,0.075 0.468,0.104c0.14,0.053 0.275,0.121 0.408,0.201c-0.187,0.144 -0.343,0.33 -0.446,0.553c-0.125,0.271 -0.161,0.566 -0.116,0.849c-0.123,-0.097 -0.246,-0.174 -0.369,-0.22c-0.268,-0.102 -2.905,-0.159 -5.458,-0.159c-2.383,0 -4.694,0.05 -4.938,0.159c-0.125,0.055 -0.254,0.147 -0.384,0.263c0.056,-0.295 0.024,-0.606 -0.107,-0.891c-0.101,-0.22 -0.253,-0.403 -0.435,-0.546c0.106,-0.069 0.215,-0.128 0.325,-0.177c0.107,-0.048 0.22,-0.098 0.541,-0.142" style="fill:#ffffff; fill-rule:nonzero;"/><path d="M42.633,44.222c0,2.446 -1.598,4.515 -3.806,5.229l-3.381,0c-2.207,-0.714 -3.805,-2.783 -3.805,-5.229c0,-3.035 2.46,-5.496 5.496,-5.496c3.035,0 5.496,2.461 5.496,5.496m-1.943,5.999c0.011,-0.007 0.023,-0.013 0.034,-0.019c1.69,-1.01 2.871,-2.689 3.251,-4.627c0.086,-0.44 0.136,-0.891 0.136,-1.353c0,-0.4 -0.036,-0.792 -0.101,-1.174c-0.134,-0.789 -0.401,-1.533 -0.777,-2.209c-0.254,-0.455 -0.556,-0.879 -0.901,-1.264c-0.365,-0.407 -0.777,-0.771 -1.227,-1.084c-1.128,-0.782 -2.495,-1.243 -3.968,-1.243c-1.474,0 -2.841,0.461 -3.968,1.243c-0.45,0.313 -0.862,0.677 -1.227,1.084c-0.345,0.385 -0.648,0.809 -0.901,1.264c-0.377,0.676 -0.643,1.42 -0.778,2.209c-0.065,0.382 -0.101,0.774 -0.101,1.174c0,0.462 0.05,0.913 0.137,1.353c0.38,1.939 1.561,3.618 3.252,4.627c0.006,0.004 0.012,0.007 0.019,0.011c0.442,0.262 0.916,0.481 1.421,0.645c0.147,0.047 0.301,0.071 0.455,0.071l3.381,0c0.155,0 0.308,-0.024 0.455,-0.071c0.5,-0.162 0.969,-0.379 1.408,-0.637" style="fill:#ffffff; fill-rule:nonzero;"/><path d="M23.013,43.832c0.712,0 2.202,0.195 2.461,2.397c0.26,2.203 1.037,4.924 2.138,5.378c0.368,0.151 1.123,0.201 1.968,0.201c0.172,0 0.348,-0.002 0.525,-0.006c-1.091,1.218 -1.766,2.813 -1.795,4.567c-0.755,-0.228 -1.538,-0.512 -2.317,-0.875c-3.758,-1.75 -4.535,-6.155 -5.054,-8.552c-0.518,-2.397 1.361,-3.11 2.074,-3.11m0,-1.478c-0.051,0 -0.106,0.007 -0.159,0.01c-0.832,0.049 -1.934,0.481 -2.669,1.392c-0.521,0.645 -1.063,1.775 -0.691,3.499l0.072,0.334c0.541,2.538 1.547,7.264 5.803,9.245c0.774,0.36 1.619,0.68 2.514,0.95c0.14,0.042 0.284,0.063 0.427,0.063c0.133,0 0.264,-0.022 0.392,-0.057c0.17,-0.047 0.333,-0.121 0.48,-0.227c0.374,-0.274 0.598,-0.707 0.606,-1.17c0,-0.018 0.003,-0.035 0.003,-0.053c0.035,-1.31 0.535,-2.569 1.415,-3.552c0.184,-0.205 0.3,-0.452 0.349,-0.712c0.055,-0.295 0.024,-0.606 -0.107,-0.891c-0.1,-0.22 -0.253,-0.403 -0.435,-0.546c-0.172,-0.134 -0.372,-0.228 -0.587,-0.276c-0.105,-0.024 -0.211,-0.039 -0.321,-0.039c-0.01,0 -0.021,0 -0.031,0c-0.167,0.003 -0.332,0.006 -0.494,0.006c-0.48,0 -0.806,-0.018 -1.026,-0.038c-0.174,-0.017 -0.284,-0.034 -0.342,-0.046c-0.179,-0.178 -0.421,-0.651 -0.651,-1.336c-0.249,-0.737 -0.485,-1.72 -0.618,-2.853c-0.03,-0.254 -0.077,-0.495 -0.135,-0.726c-0.286,-1.14 -0.907,-1.991 -1.787,-2.485c-0.569,-0.319 -1.243,-0.492 -2.008,-0.492" style="fill:#ffffff; fill-rule:nonzero;"/><path d="M45.958,56.37c-0.029,-1.754 -0.703,-3.35 -1.795,-4.568c0.179,0.004 0.357,0.006 0.531,0.006c0.844,0 1.6,-0.05 1.967,-0.201c1.102,-0.454 1.879,-3.175 2.138,-5.378c0.259,-2.202 1.749,-2.397 2.462,-2.397c0.713,0 2.591,0.713 2.073,3.11c-0.518,2.397 -1.296,6.802 -5.053,8.552c-0.782,0.363 -1.566,0.648 -2.323,0.876m-0.872,1.194c0.148,0.108 0.313,0.182 0.485,0.229c0.126,0.034 0.256,0.055 0.387,0.055c0.143,0 0.287,-0.02 0.427,-0.063c0.897,-0.27 1.744,-0.59 2.52,-0.951c4.255,-1.981 5.262,-6.707 5.802,-9.245l0.072,-0.334c0.372,-1.723 -0.17,-2.854 -0.691,-3.5c-0.734,-0.91 -1.837,-1.342 -2.668,-1.391c-0.053,-0.003 -0.109,-0.01 -0.159,-0.01c-0.765,0 -1.44,0.173 -2.009,0.492c-0.88,0.494 -1.5,1.345 -1.786,2.485c-0.058,0.231 -0.105,0.471 -0.135,0.726c-0.133,1.133 -0.37,2.116 -0.618,2.853c-0.231,0.685 -0.472,1.158 -0.652,1.336c-0.058,0.012 -0.168,0.029 -0.342,0.045c-0.22,0.021 -0.546,0.039 -1.025,0.039c-0.164,0 -0.331,-0.003 -0.499,-0.006c-0.011,-0.001 -0.022,-0.001 -0.032,-0.001c-0.108,0 -0.212,0.016 -0.314,0.038c-0.214,0.047 -0.412,0.139 -0.583,0.27c-0.188,0.144 -0.344,0.33 -0.446,0.553c-0.125,0.271 -0.161,0.566 -0.116,0.849c0.043,0.275 0.164,0.539 0.358,0.755c0.884,0.987 1.384,2.252 1.416,3.567c0,0.013 0.002,0.026 0.002,0.04c0.008,0.463 0.232,0.896 0.606,1.169" style="fill:#ffffff; fill-rule:nonzero;"/></g></svg>