<?xml version="1.0" encoding="UTF-8" standalone="no"?><!DOCTYPE svg PUBLIC "-//W3C//DTD SVG 1.1//EN" "http://www.w3.org/Graphics/SVG/1.1/DTD/svg11.dtd"><svg width="100%" height="100%" viewBox="0 0 57 86" version="1.1" xmlns="http://www.w3.org/2000/svg" xmlns:xlink="http://www.w3.org/1999/xlink" xml:space="preserve" xmlns:serif="http://www.serif.com/" style="fill-rule:evenodd;clip-rule:evenodd;stroke-linejoin:round;stroke-miterlimit:1.41421;"><g><path d="M3.352,36.038l24.847,-33.086l24.847,33.086l-2.683,0l-44.329,0l-2.682,0Zm5.023,-24.16l3.212,0l0,9.474l-3.212,4.277l0,-13.751Zm40.871,63.603l-42.094,0l0,-37.209l42.094,0l0,37.209Zm0,7.326l-42.094,0l0,-5.093l42.094,0l0,5.093Zm-43.212,2.232l44.329,0c0.616,0 1.117,-0.499 1.117,-1.116l0,-45.651l3.801,0c0.423,0 0.81,-0.239 0.998,-0.617c0.19,-0.379 0.148,-0.832 -0.105,-1.17l-27.083,-36.064c-0.421,-0.561 -1.363,-0.561 -1.786,0l-13.484,17.958l0,-7.619c0,-0.616 -0.5,-1.116 -1.117,-1.116l-5.445,0c-0.617,0 -1.118,0.5 -1.118,1.116l0,17.844l-5.917,7.881c-0.254,0.338 -0.295,0.791 -0.107,1.17c0.19,0.378 0.576,0.617 1,0.617l3.801,0l0,45.651c0,0.617 0.499,1.116 1.116,1.116Z" style="fill:#ffffff; fill-rule:nonzero;"/><path d="M12.676,52.036l3.122,0l0,5.284l-3.122,0l0,-5.284Zm0,-4.757c0,-1.523 1.238,-2.761 2.761,-2.761l0.361,0l0,5.285l-3.122,0l0,-2.524Zm5.355,4.757l3.122,0l0,5.284l-3.122,0l0,-5.284Zm0,-7.518l0.361,0c1.523,0 2.761,1.238 2.761,2.761l0,2.524l-3.122,0l0,-5.285Zm-6.472,15.036l10.711,0c0.617,0 1.117,-0.501 1.117,-1.117l0,-11.158c0,-2.754 -2.241,-4.995 -4.995,-4.995l-2.955,0c-2.755,0 -4.995,2.241 -4.995,4.995l0,11.158c0,0.616 0.499,1.117 1.117,1.117Z" style="fill:#ffffff; fill-rule:nonzero;"/><path d="M35.245,52.036l3.122,0l0,5.284l-3.122,0l0,-5.284Zm0,-4.757c0,-1.523 1.238,-2.761 2.76,-2.761l0.362,0l0,5.285l-3.122,0l0,-2.524Zm5.355,4.757l3.122,0l0,5.284l-3.122,0l0,-5.284Zm0,-7.518l0.361,0c1.523,0 2.761,1.238 2.761,2.761l0,2.524l-3.122,0l0,-5.285Zm-6.472,15.036l10.711,0c0.617,0 1.117,-0.501 1.117,-1.117l0,-11.158c0,-2.754 -2.241,-4.995 -4.995,-4.995l-2.956,0c-2.754,0 -4.994,2.241 -4.994,4.995l0,11.158c0,0.616 0.499,1.117 1.117,1.117Z" style="fill:#ffffff; fill-rule:nonzero;"/></g></svg>