<?xml version="1.0" encoding="UTF-8" standalone="no"?><!DOCTYPE svg PUBLIC "-//W3C//DTD SVG 1.1//EN" "http://www.w3.org/Graphics/SVG/1.1/DTD/svg11.dtd"><svg width="100%" height="100%" viewBox="0 0 57 51" version="1.1" xmlns="http://www.w3.org/2000/svg" xmlns:xlink="http://www.w3.org/1999/xlink" xml:space="preserve" xmlns:serif="http://www.serif.com/" style="fill-rule:evenodd;clip-rule:evenodd;stroke-linejoin:round;stroke-miterlimit:1.41421;"><g id="gondel"><path d="M39.192,2.11c0.026,-0.478 -0.083,-0.896 -0.337,-1.25c-0.464,-0.672 -1.306,-1.02 -2.135,-0.788l-5.951,1.579c-0.646,-0.584 -1.499,-0.944 -2.435,-0.944c-1.616,0 -2.977,1.066 -3.444,2.53l-5.943,1.577c-0.828,0.231 -1.38,0.946 -1.448,1.753c-0.05,0.493 0.059,0.919 0.341,1.272c0.464,0.665 1.305,1.001 2.134,0.789l5.5,-1.481l0,4.708l-16.209,0c-1.368,0 -2.493,1.125 -2.493,2.494l0,0.372c-1.343,0.061 -2.525,1.11 -2.738,2.439l-0.181,1.125l-0.944,0c-1.589,0 -2.909,1.32 -2.909,2.909l0,23.249c0,1.614 1.32,2.91 2.909,2.91l0.942,0l0.183,1.124c0.22,1.369 1.467,2.445 2.86,2.445l42.88,0c1.394,0 2.641,-1.076 2.861,-2.445l0.197,-1.124l0.928,0c1.613,0 2.933,-1.296 2.933,-2.91l0,-23.249c0,-1.589 -1.32,-2.909 -2.933,-2.909l-0.931,0l-0.194,-1.125c-0.212,-1.321 -1.38,-2.365 -2.713,-2.438l0,-0.373c0,-1.369 -1.125,-2.494 -2.494,-2.494l-16.209,0l0,-5.302c0.252,-0.325 0.452,-0.692 0.581,-1.092l5.922,-1.6c0.832,-0.213 1.401,-0.946 1.47,-1.751Z" style="fill:#231f20;"/><path d="M28.334,5.01c0.367,0 0.661,-0.293 0.661,-0.66c0,-0.367 -0.294,-0.66 -0.661,-0.66c-0.342,0 -0.635,0.293 -0.635,0.66c0,0.367 0.293,0.66 0.635,0.66" style="fill:#fff;"/><path d="M37.404,2.59l-5.442,1.465c-0.037,-0.452 -0.157,-0.88 -0.345,-1.271l5.445,-1.466c0.342,-0.073 0.709,0.122 0.807,0.465c0.073,0.366 -0.122,0.733 -0.465,0.807Z" style="fill:#fff;"/><path d="M26.794,11.855l0,-4.232c0.468,0.219 0.988,0.345 1.54,0.345c0.561,0 1.09,-0.13 1.565,-0.355l0,4.242l-3.105,0Z" style="fill:#fff;"/><path d="M47.428,13.176c0.635,0 1.173,0.513 1.173,1.173l0,0.366l-40.509,0l0,-0.366c0,-0.66 0.538,-1.173 1.173,-1.173l38.163,0Z" style="fill:#fff;"/><path d="M51.339,17.38l0.151,0.905l-46.299,0l0.139,-0.905c0.122,-0.758 0.831,-1.344 1.564,-1.344l42.88,0c0.759,0 1.443,0.586 1.565,1.344Z" style="fill:#fff;"/><path d="M55.373,21.194l0,14.351l-14.473,0l0,-10.855c0,-1.296 -1.051,-2.347 -2.346,-2.347l-7.212,0c-1.272,0 -2.347,1.051 -2.347,2.347l0,10.855l-27.675,0l0,-14.351c0,-0.88 0.709,-1.589 1.589,-1.589l50.851,0c0.88,0 1.613,0.709 1.613,1.589Z" style="fill:#fff;"/><path d="M30.315,40.948l0,-16.258c0,-0.562 0.464,-1.027 1.027,-1.027l7.212,0c0.562,0 1.026,0.465 1.026,1.027l0,16.258c0,0.586 -0.464,1.051 -1.026,1.051l-7.212,0c-0.563,0 -1.027,-0.465 -1.027,-1.051Z" style="fill:#fff;"/><path d="M53.76,46.057l-50.851,0c-0.88,0 -1.589,-0.734 -1.589,-1.614l0,-7.579l27.675,0l0,4.084c0,1.295 1.075,2.347 2.347,2.347l7.212,0c1.295,0 2.346,-1.052 2.346,-2.347l0,-4.084l14.473,0l0,7.579c0,0.88 -0.733,1.614 -1.613,1.614Z" style="fill:#fff;"/><path d="M51.339,48.282c-0.122,0.733 -0.806,1.344 -1.565,1.344l-42.88,0c-0.733,0 -1.442,-0.611 -1.564,-1.344l-0.142,-0.929l46.306,0l-0.155,0.929Z" style="fill:#fff;"/><path d="M19.631,7.357c-0.342,0.098 -0.709,-0.122 -0.806,-0.465c-0.099,-0.342 0.122,-0.709 0.464,-0.807l5.442,-1.444c0.036,0.454 0.155,0.882 0.341,1.272l-5.441,1.444Z" style="fill:#fff;"/><path d="M28.334,2.027c1.296,0 2.323,1.027 2.323,2.323c0,1.271 -1.027,2.322 -2.323,2.322c-1.271,0 -2.322,-1.051 -2.322,-2.322c0,-1.296 1.051,-2.323 2.322,-2.323Z" style="fill:#fff;"/><path d="M43.516,24.69c0,-0.562 0.489,-1.027 1.051,-1.027l7.188,0c0.587,0 1.051,0.465 1.051,1.027l0,7.188c0,0.586 -0.464,1.051 -1.051,1.051l-7.188,0c-0.562,0 -1.051,-0.465 -1.051,-1.051l0,-7.188Zm1.051,9.559l7.188,0c1.296,0 2.347,-1.076 2.347,-2.371l0,-7.188c0,-1.296 -1.051,-2.347 -2.347,-2.347l-7.188,0c-1.295,0 -2.346,1.051 -2.346,2.347l0,7.188c0,1.295 1.051,2.371 2.346,2.371"/><path d="M17.113,24.69c0,-0.562 0.465,-1.027 1.027,-1.027l7.188,0c0.586,0 1.051,0.465 1.051,1.027l0,7.188c0,0.586 -0.465,1.051 -1.051,1.051l-7.188,0c-0.562,0 -1.027,-0.465 -1.027,-1.051l0,-7.188Zm1.027,9.559l7.188,0c1.295,0 2.346,-1.076 2.346,-2.371l0,-7.188c0,-1.296 -1.051,-2.347 -2.346,-2.347l-7.188,0c-1.296,0 -2.347,1.051 -2.347,2.347l0,7.188c0,1.295 1.051,2.371 2.347,2.371"/><path d="M3.887,24.69c0,-0.562 0.465,-1.027 1.051,-1.027l7.188,0c0.562,0 1.027,0.465 1.027,1.027l0,7.188c0,0.586 -0.465,1.051 -1.027,1.051l-7.188,0c-0.586,0 -1.051,-0.465 -1.051,-1.051l0,-7.188Zm-1.32,7.188c0,1.295 1.076,2.371 2.371,2.371l7.188,0c1.296,0 2.347,-1.076 2.347,-2.371l0,-7.188c0,-1.296 -1.051,-2.347 -2.347,-2.347l-7.188,0c-1.295,0 -2.371,1.051 -2.371,2.347l0,7.188Z"/></g></svg>