<?xml version="1.0" encoding="UTF-8" standalone="no"?><!DOCTYPE svg PUBLIC "-//W3C//DTD SVG 1.1//EN" "http://www.w3.org/Graphics/SVG/1.1/DTD/svg11.dtd"><svg width="100%" height="100%" viewBox="0 0 13863 3775" version="1.1" xmlns="http://www.w3.org/2000/svg" xmlns:xlink="http://www.w3.org/1999/xlink" xml:space="preserve" xmlns:serif="http://www.serif.com/" style="fill-rule:evenodd;clip-rule:evenodd;stroke-linecap:round;stroke-linejoin:round;stroke-miterlimit:1.5;"><g id="layer0"><path d="M2.989,3743.13l13856.5,-3740.14" style="fill:none;stroke:#000;stroke-width:5.98px;"/><path d="M2.989,3771.93l13856.5,-3740.14" style="fill:none;stroke:#000;stroke-width:5.98px;"/><g id="gondel"><path d="M7075.87,1866.7c0.116,-2.195 -0.383,-4.118 -1.551,-5.744c-2.132,-3.091 -6.005,-4.692 -9.817,-3.627l-27.363,7.262c-2.972,-2.686 -6.894,-4.34 -11.196,-4.34c-7.433,0 -13.691,4.903 -15.837,11.634l-27.327,7.251c-3.804,1.062 -6.344,4.351 -6.656,8.06c-0.229,2.266 0.269,4.225 1.566,5.847c2.133,3.059 6.003,4.603 9.811,3.63l25.292,-6.81l0,21.649l-74.529,0c-6.293,0 -11.465,5.169 -11.465,11.464l0,1.714c-6.177,0.279 -11.608,5.103 -12.59,11.213l-0.831,5.172l-4.339,0c-7.308,0 -13.378,6.07 -13.378,13.376l0,106.903c0,7.42 6.07,13.378 13.378,13.378l4.329,0l0.841,5.17c1.012,6.295 6.744,11.241 13.151,11.241l197.168,0c6.408,0 12.141,-4.946 13.154,-11.241l0.905,-5.17l4.266,0c7.42,0 13.487,-5.958 13.487,-13.378l0,-106.903c0,-7.306 -6.067,-13.376 -13.487,-13.376l-4.278,0l-0.893,-5.172c-0.977,-6.072 -6.348,-10.873 -12.477,-11.208l0,-1.719c0,-6.295 -5.172,-11.464 -11.468,-11.464l-74.527,0l0,-24.382c1.159,-1.494 2.075,-3.181 2.671,-5.018l27.23,-7.36c3.824,-0.977 6.441,-4.349 6.76,-8.052Z" style="fill:#231f20;"/><path d="M7025.94,1880.04c1.687,0 3.036,-1.349 3.036,-3.036c0,-1.687 -1.349,-3.034 -3.036,-3.034c-1.572,0 -2.922,1.347 -2.922,3.034c0,1.687 1.35,3.036 2.922,3.036" style="fill:#fff;"/><path d="M7067.65,1868.91l-25.024,6.736c-0.169,-2.077 -0.724,-4.044 -1.586,-5.841l25.036,-6.741c1.574,-0.339 3.261,0.561 3.71,2.136c0.337,1.684 -0.561,3.371 -2.136,3.71Z" style="fill:#fff;"/><path d="M7018.86,1911.52l0,-19.463c2.149,1.008 4.542,1.588 7.081,1.588c2.577,0 5.011,-0.596 7.196,-1.632l0,19.507l-14.277,0Z" style="fill:#fff;"/><path d="M7113.74,1917.59c2.924,0 5.396,2.36 5.396,5.394l0,1.687l-186.264,0l0,-1.687c0,-3.034 2.472,-5.394 5.395,-5.394l175.473,0Z" style="fill:#fff;"/><path d="M7131.72,1936.92l0.693,4.159l-212.886,0l0.636,-4.159c0.561,-3.486 3.822,-6.183 7.193,-6.183l197.168,0c3.486,0 6.634,2.697 7.196,6.183Z" style="fill:#fff;"/><path d="M7150.27,1954.45l0,65.986l-66.548,0l0,-49.91c0,-5.958 -4.833,-10.792 -10.791,-10.792l-33.162,0c-5.846,0 -10.791,4.834 -10.791,10.792l0,49.91l-127.25,0l0,-65.986c0,-4.047 3.26,-7.306 7.308,-7.306l233.814,0c4.046,0 7.42,3.259 7.42,7.306Z" style="fill:#fff;"/><path d="M7035.05,2045.29l0,-74.754c0,-2.586 2.136,-4.722 4.721,-4.722l33.162,0c2.584,0 4.72,2.136 4.72,4.722l0,74.754c0,2.696 -2.136,4.833 -4.72,4.833l-33.162,0c-2.585,0 -4.721,-2.137 -4.721,-4.833Z" style="fill:#fff;"/><path d="M7142.85,2068.78l-233.814,0c-4.048,0 -7.308,-3.373 -7.308,-7.42l0,-34.848l127.25,0l0,18.775c0,5.956 4.945,10.791 10.791,10.791l33.162,0c5.958,0 10.791,-4.835 10.791,-10.791l0,-18.775l66.548,0l0,34.848c0,4.047 -3.374,7.42 -7.42,7.42Z" style="fill:#fff;"/><path d="M7131.72,2079.01c-0.562,3.372 -3.71,6.181 -7.196,6.181l-197.168,0c-3.371,0 -6.632,-2.809 -7.193,-6.181l-0.653,-4.271l212.922,0l-0.712,4.271Z" style="fill:#fff;"/><path d="M6985.93,1890.83c-1.574,0.45 -3.258,-0.561 -3.707,-2.136c-0.452,-1.574 0.561,-3.261 2.133,-3.71l25.023,-6.641c0.165,2.085 0.714,4.053 1.571,5.847l-25.02,6.64Z" style="fill:#fff;"/><path d="M7025.94,1866.33c5.958,0 10.679,4.721 10.679,10.679c0,5.846 -4.721,10.679 -10.679,10.679c-5.843,0 -10.678,-4.833 -10.678,-10.679c0,-5.958 4.835,-10.679 10.678,-10.679Z" style="fill:#fff;"/><path d="M7095.75,1970.53c0,-2.585 2.248,-4.721 4.833,-4.721l33.049,0c2.697,0 4.833,2.136 4.833,4.721l0,33.049c0,2.698 -2.136,4.833 -4.833,4.833l-33.049,0c-2.585,0 -4.833,-2.135 -4.833,-4.833l0,-33.049Zm4.833,43.953l33.049,0c5.957,0 10.791,-4.948 10.791,-10.904l0,-33.049c0,-5.958 -4.834,-10.792 -10.791,-10.792l-33.049,0c-5.958,0 -10.791,4.834 -10.791,10.792l0,33.049c0,5.956 4.833,10.904 10.791,10.904"/><path d="M6974.35,1970.53c0,-2.585 2.137,-4.721 4.721,-4.721l33.05,0c2.697,0 4.833,2.136 4.833,4.721l0,33.049c0,2.698 -2.136,4.833 -4.833,4.833l-33.05,0c-2.584,0 -4.721,-2.135 -4.721,-4.833l0,-33.049Zm4.721,43.953l33.05,0c5.956,0 10.791,-4.948 10.791,-10.904l0,-33.049c0,-5.958 -4.835,-10.792 -10.791,-10.792l-33.05,0c-5.958,0 -10.791,4.834 -10.791,10.792l0,33.049c0,5.956 4.833,10.904 10.791,10.904"/><path d="M6913.53,1970.53c0,-2.585 2.136,-4.721 4.833,-4.721l33.049,0c2.586,0 4.722,2.136 4.722,4.721l0,33.049c0,2.698 -2.136,4.833 -4.722,4.833l-33.049,0c-2.697,0 -4.833,-2.135 -4.833,-4.833l0,-33.049Zm-6.07,33.049c0,5.956 4.945,10.904 10.903,10.904l33.049,0c5.958,0 10.792,-4.948 10.792,-10.904l0,-33.049c0,-5.958 -4.834,-10.792 -10.792,-10.792l-33.049,0c-5.958,0 -10.903,4.834 -10.903,10.792l0,33.049Z"/></g></g></svg>